<svg id="svg" version="1.1" xmlns="http://www.w3.org/2000/svg" xmlns:xlink="http://www.w3.org/1999/xlink" width="400" height="399.91113085980896" viewBox="0, 0, 400,399.91113085980896"><g id="svgg"><path id="path0" d="M192.667 14.099 C 187.348 14.384,184.856 14.546,182.500 14.763 C 118.047 20.679,61.021 60.272,32.484 118.917 C 31.502 120.933,30.511 123.033,30.281 123.583 C 30.051 124.133,29.514 125.371,29.087 126.333 C 28.660 127.296,27.825 129.321,27.231 130.833 C 26.638 132.346,26.073 133.771,25.977 134.000 C 23.702 139.417,19.830 152.569,18.176 160.500 C 17.994 161.371,17.733 162.608,17.596 163.250 C 13.402 182.902,12.911 210.853,16.421 230.083 C 16.555 230.817,16.855 232.504,17.089 233.833 C 20.921 255.646,29.562 278.063,41.694 297.667 C 53.812 317.248,70.107 334.998,88.922 349.111 C 101.440 358.500,115.426 366.397,130.000 372.305 C 166.377 387.053,207.478 389.867,245.750 380.231 C 319.307 361.711,374.877 299.195,384.398 224.250 C 385.380 216.520,385.586 213.932,385.861 205.807 C 386.118 198.207,385.767 186.964,385.092 181.167 C 381.860 153.442,374.585 130.424,362.203 108.750 C 330.541 53.329,275.491 18.722,212.000 14.324 C 209.505 14.152,194.875 13.981,192.667 14.099 M210.000 31.745 C 227.126 33.073,239.442 35.459,253.500 40.172 C 259.856 42.302,264.538 44.161,270.917 47.084 C 272.530 47.824,278.820 50.973,279.750 51.507 C 280.117 51.718,281.092 52.259,281.917 52.711 C 283.463 53.556,286.139 55.104,287.167 55.747 C 287.487 55.948,288.343 56.481,289.069 56.931 C 290.719 57.956,297.382 62.398,298.167 62.997 C 298.701 63.405,302.772 66.471,303.809 67.246 C 305.092 68.205,309.678 72.023,311.000 73.232 C 311.321 73.525,312.671 74.749,314.000 75.951 C 319.904 81.291,329.188 91.339,332.910 96.417 C 333.179 96.783,333.443 97.121,333.497 97.167 C 333.552 97.212,334.306 98.217,335.173 99.398 C 336.040 100.579,336.995 101.875,337.294 102.277 C 351.384 121.227,362.747 149.062,366.403 173.583 C 366.635 175.142,366.903 176.904,366.998 177.500 C 367.259 179.130,367.629 182.697,367.915 186.333 C 368.859 198.335,368.488 211.988,366.921 222.917 C 365.666 231.672,363.653 240.992,361.486 248.083 C 360.704 250.642,359.161 255.377,358.987 255.750 C 358.902 255.933,358.612 256.721,358.344 257.500 C 357.719 259.314,356.802 261.719,356.087 263.417 C 353.580 269.374,353.248 270.099,350.546 275.500 C 347.001 282.586,344.232 287.314,339.519 294.333 C 338.064 296.500,337.581 297.177,335.083 300.555 C 329.527 308.069,321.873 316.598,314.665 323.309 C 311.396 326.353,306.147 330.839,303.809 332.587 C 302.878 333.284,298.722 336.412,298.167 336.835 C 295.171 339.115,286.444 344.650,281.917 347.142 C 281.183 347.545,280.246 348.063,279.833 348.291 C 278.776 348.877,272.103 352.219,271.000 352.715 C 266.921 354.551,264.919 355.413,262.833 356.234 C 261.504 356.757,260.267 357.254,260.083 357.338 C 259.102 357.791,252.386 360.073,248.667 361.217 C 244.595 362.470,238.006 364.136,234.000 364.927 C 232.762 365.171,231.412 365.440,231.000 365.526 C 216.560 368.513,194.964 369.126,178.583 367.014 C 175.711 366.644,168.699 365.546,168.346 365.412 C 168.216 365.362,167.128 365.133,165.929 364.902 C 162.232 364.190,155.364 362.458,151.333 361.221 C 147.737 360.117,140.896 357.790,139.917 357.338 C 139.733 357.254,138.496 356.757,137.167 356.234 C 135.081 355.413,133.064 354.544,129.000 352.715 C 127.843 352.194,121.555 349.044,120.333 348.373 C 118.987 347.634,116.897 346.457,115.708 345.769 C 115.135 345.438,114.235 344.919,113.708 344.616 C 113.181 344.312,112.300 343.780,111.750 343.433 C 111.200 343.086,110.525 342.662,110.250 342.492 C 109.164 341.819,102.440 337.302,101.863 336.858 C 101.278 336.407,97.124 333.283,96.179 332.583 C 95.286 331.921,89.923 327.475,88.741 326.417 C 84.260 322.403,78.416 316.620,75.073 312.891 C 68.184 305.209,63.522 299.077,57.417 289.667 C 53.431 283.525,48.240 273.623,44.979 265.946 C 44.440 264.679,44.000 263.610,44.000 263.569 C 44.000 263.529,43.854 263.178,43.675 262.790 C 43.268 261.905,42.297 259.361,41.656 257.500 C 41.388 256.721,41.096 255.933,41.008 255.750 C 40.651 255.007,38.280 247.434,37.485 244.500 C 34.164 232.234,32.552 221.884,31.683 207.250 C 31.240 199.790,31.902 184.173,32.915 178.167 C 32.954 177.938,33.183 176.362,33.425 174.667 C 35.089 163.008,39.965 145.110,43.675 137.043 C 43.854 136.655,44.000 136.302,44.000 136.259 C 44.000 136.217,44.344 135.372,44.765 134.382 C 53.175 114.594,65.035 96.893,80.067 81.695 C 83.034 78.694,84.760 77.058,89.083 73.143 C 90.788 71.599,94.526 68.520,96.750 66.827 C 97.392 66.338,98.517 65.481,99.250 64.922 C 102.048 62.790,107.097 59.336,110.833 56.998 C 111.612 56.510,112.513 55.944,112.833 55.738 C 122.668 49.450,138.754 42.341,152.083 38.393 C 156.294 37.145,161.382 35.876,165.667 35.003 C 167.362 34.658,168.938 34.326,169.167 34.267 C 169.707 34.126,176.690 33.062,179.167 32.743 C 181.655 32.423,188.132 31.872,191.000 31.735 C 192.237 31.677,193.287 31.592,193.333 31.547 C 193.434 31.448,208.473 31.627,210.000 31.745 M175.667 125.826 L 175.667 139.985 175.125 140.070 C 174.827 140.116,173.796 140.237,172.833 140.337 C 139.165 143.838,114.456 164.161,110.323 191.750 C 104.924 227.782,132.714 258.613,174.625 263.088 L 175.667 263.199 175.667 272.433 L 175.667 281.667 206.917 281.667 L 238.167 281.667 238.167 272.667 L 238.167 263.667 242.543 263.667 L 246.920 263.667 250.161 259.458 C 253.272 255.420,262.068 244.016,270.278 233.378 C 272.417 230.607,274.167 228.304,274.167 228.259 C 274.167 228.215,253.223 228.151,227.625 228.118 C 178.216 228.054,180.519 228.089,176.141 227.339 C 160.886 224.726,152.746 215.350,152.770 200.417 C 152.792 186.824,159.650 179.043,173.693 176.677 C 179.232 175.744,177.716 175.782,213.736 175.679 L 247.056 175.583 253.447 167.167 C 256.962 162.537,260.691 157.625,261.733 156.250 C 263.902 153.389,266.581 149.857,271.046 143.971 C 272.763 141.709,274.167 139.815,274.167 139.763 C 274.167 139.711,266.085 139.649,256.208 139.626 L 238.250 139.583 238.207 125.625 L 238.165 111.667 206.916 111.667 L 175.667 111.667 175.667 125.826 " stroke="none" fill="#04b3d0" fill-rule="evenodd"></path><path id="path1" d="M192.167 36.932 C 164.884 38.617,141.284 45.514,119.083 58.292 C 55.827 94.701,24.372 167.653,41.417 238.417 C 57.256 304.172,113.863 354.346,180.750 361.915 C 189.028 362.852,190.185 362.912,199.917 362.915 C 209.437 362.917,210.080 362.886,217.833 362.071 C 309.637 352.411,375.542 266.360,361.236 174.833 C 358.634 158.186,353.638 142.468,346.220 127.591 C 326.753 88.552,292.870 59.000,251.750 45.198 C 239.045 40.933,227.551 38.600,212.500 37.231 C 209.788 36.984,194.874 36.765,192.167 36.932 M238.333 125.583 L 238.333 139.500 256.333 139.500 C 266.233 139.500,274.333 139.564,274.333 139.643 C 274.333 139.722,273.823 140.453,273.200 141.268 C 272.577 142.083,271.013 144.137,269.726 145.833 C 268.438 147.529,266.501 150.079,265.422 151.500 C 264.342 152.921,262.495 155.358,261.316 156.917 C 260.137 158.475,258.146 161.100,256.891 162.750 C 255.637 164.400,253.812 166.800,252.837 168.083 C 251.861 169.367,250.137 171.635,249.007 173.125 L 246.951 175.833 214.600 175.834 C 178.317 175.834,178.057 175.841,172.417 177.013 C 159.442 179.708,153.214 186.829,152.885 199.345 C 152.437 216.441,162.056 226.274,180.750 227.830 C 182.018 227.936,199.518 227.997,228.556 227.998 C 259.685 227.999,274.343 228.055,274.304 228.170 C 274.244 228.352,273.433 229.413,266.083 238.931 C 263.517 242.255,258.979 248.139,256.000 252.008 C 253.021 255.876,249.793 260.063,248.828 261.312 L 247.072 263.583 242.703 263.628 L 238.333 263.672 238.333 272.753 L 238.333 281.833 207.000 281.833 L 175.667 281.833 175.667 272.587 L 175.667 263.340 175.292 263.261 C 175.085 263.218,174.129 263.098,173.167 262.995 C 140.717 259.521,115.113 237.986,110.441 210.240 C 104.309 173.819,131.238 144.342,174.542 140.072 L 175.667 139.961 175.667 125.814 L 175.667 111.667 207.000 111.667 L 238.333 111.667 238.333 125.583 " stroke="none" fill="#043c4c" fill-rule="evenodd"></path><path id="path2" d="M198.708 36.791 C 199.419 36.822,200.581 36.822,201.292 36.791 C 202.002 36.759,201.421 36.734,200.000 36.734 C 198.579 36.734,197.998 36.759,198.708 36.791 M192.208 36.948 C 192.369 36.990,192.631 36.990,192.792 36.948 C 192.952 36.906,192.821 36.872,192.500 36.872 C 192.179 36.872,192.048 36.906,192.208 36.948 M87.575 81.708 L 86.917 82.417 87.625 81.758 C 88.284 81.145,88.410 81.000,88.284 81.000 C 88.257 81.000,87.938 81.319,87.575 81.708 M312.250 81.667 C 312.608 82.033,312.938 82.333,312.984 82.333 C 313.030 82.333,312.775 82.033,312.417 81.667 C 312.059 81.300,311.728 81.000,311.682 81.000 C 311.637 81.000,311.892 81.300,312.250 81.667 M81.575 87.708 L 80.917 88.417 81.625 87.758 C 82.284 87.145,82.410 87.000,82.284 87.000 C 82.257 87.000,81.938 87.319,81.575 87.708 M318.250 87.667 C 318.608 88.033,318.938 88.333,318.984 88.333 C 319.030 88.333,318.775 88.033,318.417 87.667 C 318.059 87.300,317.728 87.000,317.682 87.000 C 317.637 87.000,317.892 87.300,318.250 87.667 M36.875 193.417 C 36.877 193.783,36.911 193.914,36.951 193.706 C 36.991 193.499,36.990 193.199,36.948 193.040 C 36.906 192.880,36.874 193.050,36.875 193.417 M363.039 193.500 C 363.039 193.821,363.073 193.952,363.115 193.792 C 363.157 193.631,363.157 193.369,363.115 193.208 C 363.073 193.048,363.039 193.179,363.039 193.500 M152.728 200.417 C 152.728 201.333,152.756 201.687,152.790 201.203 C 152.824 200.718,152.823 199.968,152.789 199.536 C 152.755 199.104,152.727 199.500,152.728 200.417 M36.875 206.417 C 36.877 206.783,36.911 206.914,36.951 206.706 C 36.991 206.499,36.990 206.199,36.948 206.040 C 36.906 205.880,36.874 206.050,36.875 206.417 M363.042 206.417 C 363.044 206.783,363.078 206.914,363.118 206.706 C 363.158 206.499,363.156 206.199,363.115 206.040 C 363.073 205.880,363.040 206.050,363.042 206.417 M81.583 312.167 C 81.941 312.533,82.272 312.833,82.318 312.833 C 82.363 312.833,82.108 312.533,81.750 312.167 C 81.392 311.800,81.062 311.500,81.016 311.500 C 80.970 311.500,81.225 311.800,81.583 312.167 M318.324 312.125 L 317.750 312.750 318.375 312.176 C 318.719 311.860,319.000 311.578,319.000 311.551 C 319.000 311.423,318.859 311.543,318.324 312.125 M87.583 318.167 C 87.941 318.533,88.272 318.833,88.318 318.833 C 88.363 318.833,88.108 318.533,87.750 318.167 C 87.392 317.800,87.062 317.500,87.016 317.500 C 86.970 317.500,87.225 317.800,87.583 318.167 M312.242 318.208 L 311.583 318.917 312.292 318.258 C 312.950 317.645,313.077 317.500,312.950 317.500 C 312.923 317.500,312.605 317.819,312.242 318.208 M198.708 363.124 C 199.419 363.155,200.581 363.155,201.292 363.124 C 202.002 363.093,201.421 363.067,200.000 363.067 C 198.579 363.067,197.998 363.093,198.708 363.124 " stroke="none" fill="#04637a" fill-rule="evenodd"></path><path id="path3" d="M192.750 7.843 C 178.125 8.361,162.722 10.723,148.500 14.630 C 143.664 15.958,134.574 18.899,133.553 19.465 C 133.352 19.576,133.110 19.667,133.014 19.667 C 132.836 19.667,127.659 21.659,126.750 22.077 C 126.475 22.204,125.851 22.464,125.364 22.656 C 124.876 22.847,123.998 23.228,123.412 23.502 C 122.827 23.776,122.303 24.000,122.250 24.000 C 122.098 24.000,117.337 26.237,114.333 27.719 C 111.986 28.878,106.573 31.762,104.643 32.883 C 101.934 34.457,100.905 35.083,96.798 37.659 C 94.173 39.306,89.413 42.548,87.124 44.250 C 85.682 45.322,83.080 47.274,82.238 47.916 C 81.334 48.605,78.213 51.117,77.487 51.739 C 77.159 52.020,76.525 52.550,76.079 52.917 C 75.337 53.526,72.530 55.959,72.333 56.163 C 72.287 56.211,71.837 56.619,71.333 57.071 C 65.944 61.897,55.635 72.496,53.441 75.467 C 53.244 75.733,52.921 76.130,52.723 76.350 C 51.794 77.379,49.592 80.085,47.446 82.835 C 47.008 83.396,44.361 86.968,43.865 87.667 C 40.920 91.817,38.919 94.800,36.821 98.167 C 36.164 99.221,35.456 100.346,35.247 100.667 C 35.038 100.987,34.287 102.263,33.579 103.500 C 32.871 104.737,32.236 105.825,32.168 105.917 C 30.704 107.895,24.152 121.563,21.582 128.000 C 17.200 138.977,13.866 150.150,11.511 161.750 C 10.909 164.718,10.647 166.222,9.744 171.917 C 9.614 172.742,9.317 175.142,9.085 177.250 C 8.854 179.358,8.632 181.308,8.593 181.583 C 7.608 188.520,7.603 211.902,8.585 218.167 C 8.621 218.396,8.733 219.408,8.835 220.417 C 9.144 223.476,9.648 227.497,9.920 229.083 C 10.062 229.908,10.434 232.083,10.747 233.917 C 11.291 237.111,12.298 242.142,12.657 243.458 C 12.750 243.802,13.051 245.021,13.326 246.167 C 13.718 247.804,14.700 251.546,15.250 253.500 C 15.416 254.091,16.699 258.233,17.237 259.917 C 18.385 263.505,20.960 270.486,21.910 272.583 C 22.118 273.042,22.345 273.604,22.416 273.833 C 22.559 274.292,24.979 279.761,26.030 282.000 C 28.364 286.969,32.365 294.458,34.800 298.417 C 35.082 298.875,35.592 299.737,35.934 300.333 C 36.275 300.929,36.603 301.454,36.661 301.500 C 36.720 301.546,36.946 301.883,37.165 302.250 C 37.910 303.501,42.620 310.509,43.546 311.745 C 43.750 312.017,44.667 313.253,45.583 314.492 C 46.500 315.730,47.347 316.858,47.465 316.997 C 47.583 317.136,48.443 318.225,49.375 319.417 C 50.307 320.608,51.560 322.152,52.160 322.846 C 52.759 323.541,53.550 324.472,53.917 324.915 C 54.634 325.783,55.208 326.433,57.664 329.161 C 62.564 334.602,71.189 342.919,76.076 346.917 C 76.525 347.283,77.385 347.996,77.987 348.500 C 78.590 349.004,79.196 349.505,79.333 349.614 C 79.471 349.723,80.083 350.210,80.693 350.697 C 82.189 351.891,82.581 352.193,85.000 354.016 C 87.197 355.671,87.187 355.664,88.854 356.821 C 89.438 357.226,89.954 357.605,90.000 357.661 C 90.106 357.792,96.536 362.035,98.083 362.995 C 98.725 363.393,99.550 363.912,99.917 364.147 C 102.997 366.127,110.830 370.424,115.599 372.750 C 118.162 374.000,119.526 374.627,123.750 376.496 C 126.707 377.805,130.325 379.235,134.083 380.581 C 135.550 381.107,136.900 381.602,137.083 381.682 C 137.267 381.762,138.167 382.059,139.083 382.342 C 140.000 382.625,141.162 382.997,141.667 383.169 C 150.541 386.199,165.888 389.511,176.750 390.740 C 178.858 390.979,180.808 391.209,181.083 391.252 C 186.574 392.107,204.861 392.338,213.833 391.665 C 217.750 391.372,218.417 391.315,218.833 391.244 C 219.063 391.204,220.975 390.980,223.083 390.746 C 227.075 390.302,227.953 390.177,232.917 389.345 C 239.272 388.278,249.628 385.884,254.583 384.336 C 255.133 384.164,256.708 383.674,258.083 383.247 C 264.299 381.317,271.938 378.462,276.637 376.315 C 277.216 376.050,277.725 375.833,277.767 375.833 C 277.901 375.833,281.637 374.097,284.417 372.743 C 289.248 370.390,296.626 366.318,300.500 363.866 C 301.096 363.489,301.921 362.980,302.333 362.734 C 303.252 362.187,309.902 357.733,311.167 356.817 C 311.671 356.452,312.271 356.025,312.500 355.869 C 312.888 355.604,314.991 354.023,317.471 352.133 C 323.061 347.872,331.093 340.794,335.994 335.812 C 338.674 333.086,341.063 330.587,342.265 329.250 C 343.007 328.425,344.086 327.225,344.663 326.583 C 345.240 325.942,345.981 325.079,346.309 324.667 C 346.637 324.254,347.361 323.392,347.917 322.750 C 348.899 321.618,350.898 319.145,352.129 317.538 C 353.207 316.132,355.587 312.936,356.130 312.167 C 356.421 311.754,357.012 310.929,357.443 310.333 C 358.538 308.820,362.243 303.235,363.414 301.333 C 363.950 300.462,364.554 299.487,364.756 299.167 C 367.309 295.110,371.676 286.959,374.088 281.750 C 374.428 281.017,374.916 279.967,375.174 279.417 C 376.533 276.519,378.947 270.635,380.406 266.667 C 381.606 263.400,383.531 257.660,384.179 255.417 C 386.672 246.773,388.032 241.006,389.248 233.917 C 389.563 232.083,389.933 229.946,390.072 229.167 C 390.211 228.387,390.513 226.063,390.743 224.000 C 390.974 221.938,391.238 219.688,391.330 219.000 C 393.187 205.200,392.073 179.702,388.920 163.833 C 387.969 159.050,386.582 152.895,386.009 150.917 C 385.823 150.275,385.453 148.962,385.187 148.000 C 384.130 144.170,383.589 142.417,382.255 138.500 C 380.276 132.686,378.721 128.489,377.843 126.596 C 377.586 126.039,377.317 125.396,377.248 125.167 C 377.178 124.938,376.831 124.130,376.477 123.372 C 376.123 122.614,375.833 121.959,375.833 121.917 C 375.833 121.845,375.389 120.871,374.047 118.000 C 372.104 113.845,369.144 108.179,366.863 104.250 C 366.171 103.058,365.417 101.746,365.187 101.333 C 364.958 100.921,364.727 100.546,364.675 100.500 C 364.623 100.454,364.286 99.929,363.927 99.333 C 362.582 97.102,359.509 92.437,357.685 89.859 C 357.079 89.002,356.474 88.139,356.340 87.942 C 355.121 86.149,349.844 79.323,348.261 77.492 C 347.980 77.167,347.450 76.535,347.083 76.088 C 341.507 69.291,330.369 58.147,323.923 52.917 C 323.471 52.550,322.835 52.020,322.509 51.740 C 320.366 49.893,314.122 45.080,311.500 43.253 C 310.721 42.710,310.046 42.225,310.000 42.175 C 309.954 42.124,309.795 42.008,309.645 41.917 C 309.496 41.825,308.071 40.880,306.479 39.817 C 304.886 38.753,303.133 37.597,302.583 37.248 C 301.026 36.260,296.489 33.500,296.421 33.500 C 296.388 33.500,295.773 33.153,295.055 32.728 C 291.846 30.831,283.387 26.484,280.583 25.292 C 279.942 25.019,279.342 24.740,279.250 24.671 C 278.535 24.136,267.501 19.732,263.167 18.252 C 262.571 18.049,261.746 17.765,261.333 17.623 C 260.613 17.374,257.398 16.369,254.250 15.410 C 236.117 9.883,213.552 7.107,192.750 7.843 M212.000 14.324 C 237.904 16.119,261.345 22.489,283.833 33.845 C 335.714 60.044,373.074 110.016,383.010 166.500 C 383.865 171.361,384.334 174.664,385.092 181.167 C 386.203 190.708,386.195 208.840,385.073 218.833 C 384.218 226.455,383.092 233.538,381.749 239.750 C 366.971 308.106,313.714 363.120,245.750 380.231 C 209.147 389.447,168.133 387.131,134.083 373.925 C 128.791 371.873,125.560 370.501,120.917 368.335 C 88.901 353.400,60.514 328.079,41.694 297.667 C 29.562 278.063,20.921 255.646,17.089 233.833 C 16.855 232.504,16.555 230.817,16.421 230.083 C 12.911 210.853,13.402 182.902,17.596 163.250 C 17.733 162.608,17.994 161.371,18.176 160.500 C 19.830 152.569,23.702 139.417,25.977 134.000 C 26.073 133.771,26.638 132.346,27.231 130.833 C 27.825 129.321,28.660 127.296,29.087 126.333 C 29.514 125.371,30.051 124.133,30.281 123.583 C 32.868 117.398,39.078 106.076,44.084 98.417 C 75.186 50.830,126.332 19.919,182.500 14.763 C 184.856 14.546,187.348 14.384,192.667 14.099 C 194.875 13.981,209.505 14.152,212.000 14.324 M193.333 31.547 C 193.287 31.592,192.237 31.677,191.000 31.735 C 188.132 31.872,181.655 32.423,179.167 32.743 C 176.690 33.062,169.707 34.126,169.167 34.267 C 168.938 34.326,167.362 34.658,165.667 35.003 C 149.626 38.269,133.193 44.327,119.000 52.207 C 116.141 53.794,113.582 55.260,112.833 55.738 C 112.513 55.944,111.612 56.510,110.833 56.998 C 107.097 59.336,102.048 62.790,99.250 64.922 C 98.517 65.481,97.392 66.338,96.750 66.827 C 94.526 68.520,90.788 71.599,89.083 73.143 C 84.760 77.058,83.034 78.694,80.067 81.695 C 65.035 96.893,53.175 114.594,44.765 134.382 C 44.344 135.372,44.000 136.217,44.000 136.259 C 44.000 136.302,43.854 136.655,43.675 137.043 C 39.965 145.110,35.089 163.008,33.425 174.667 C 33.183 176.362,32.954 177.938,32.915 178.167 C 32.229 182.231,31.545 193.047,31.539 199.917 C 31.525 215.993,34.076 233.610,38.515 248.083 C 39.409 250.996,40.842 255.405,41.008 255.750 C 41.096 255.933,41.388 256.721,41.656 257.500 C 42.297 259.361,43.268 261.905,43.675 262.790 C 43.854 263.178,44.000 263.529,44.000 263.569 C 44.000 263.610,44.440 264.679,44.979 265.946 C 48.240 273.623,53.431 283.525,57.417 289.667 C 63.522 299.077,68.184 305.209,75.073 312.891 C 78.416 316.620,84.260 322.403,88.741 326.417 C 89.923 327.475,95.286 331.921,96.179 332.583 C 97.124 333.283,101.278 336.407,101.863 336.858 C 102.440 337.302,109.164 341.819,110.250 342.492 C 110.525 342.662,111.200 343.086,111.750 343.433 C 112.300 343.780,113.181 344.312,113.708 344.616 C 114.235 344.919,115.135 345.438,115.708 345.769 C 116.897 346.457,118.987 347.634,120.333 348.373 C 121.555 349.044,127.843 352.194,129.000 352.715 C 133.064 354.544,135.081 355.413,137.167 356.234 C 138.496 356.757,139.733 357.254,139.917 357.338 C 140.896 357.790,147.737 360.117,151.333 361.221 C 155.364 362.458,162.232 364.190,165.929 364.902 C 167.128 365.133,168.216 365.362,168.346 365.412 C 168.699 365.546,175.711 366.644,178.583 367.014 C 194.964 369.126,216.560 368.513,231.000 365.526 C 231.412 365.440,232.762 365.171,234.000 364.927 C 238.006 364.136,244.595 362.470,248.667 361.217 C 252.386 360.073,259.102 357.791,260.083 357.338 C 260.267 357.254,261.504 356.757,262.833 356.234 C 264.919 355.413,266.921 354.551,271.000 352.715 C 272.103 352.219,278.776 348.877,279.833 348.291 C 280.246 348.063,281.183 347.545,281.917 347.142 C 286.444 344.650,295.171 339.115,298.167 336.835 C 298.722 336.412,302.878 333.284,303.809 332.587 C 306.147 330.839,311.396 326.353,314.665 323.309 C 321.873 316.598,329.527 308.069,335.083 300.555 C 337.581 297.177,338.064 296.500,339.519 294.333 C 344.232 287.314,347.001 282.586,350.546 275.500 C 353.248 270.099,353.580 269.374,356.087 263.417 C 356.802 261.719,357.719 259.314,358.344 257.500 C 358.612 256.721,358.902 255.933,358.987 255.750 C 359.161 255.377,360.704 250.642,361.486 248.083 C 363.653 240.992,365.666 231.672,366.921 222.917 C 368.488 211.988,368.859 198.335,367.915 186.333 C 367.629 182.697,367.259 179.130,366.998 177.500 C 366.903 176.904,366.635 175.142,366.403 173.583 C 362.747 149.062,351.384 121.227,337.294 102.277 C 336.995 101.875,336.040 100.579,335.173 99.398 C 334.306 98.217,333.552 97.212,333.497 97.167 C 333.443 97.121,333.179 96.783,332.910 96.417 C 329.188 91.339,319.904 81.291,314.000 75.951 C 312.671 74.749,311.321 73.525,311.000 73.232 C 309.678 72.023,305.092 68.205,303.809 67.246 C 302.772 66.471,298.701 63.405,298.167 62.997 C 297.382 62.398,290.719 57.956,289.069 56.931 C 288.343 56.481,287.487 55.948,287.167 55.747 C 286.139 55.104,283.463 53.556,281.917 52.711 C 281.092 52.259,280.117 51.718,279.750 51.507 C 278.820 50.973,272.530 47.824,270.917 47.084 C 264.538 44.161,259.856 42.302,253.500 40.172 C 239.442 35.459,227.126 33.073,210.000 31.745 C 208.473 31.627,193.434 31.448,193.333 31.547 M206.000 36.832 C 240.630 38.288,272.591 49.826,299.417 70.554 C 378.006 131.280,385.105 246.356,314.560 316.011 C 254.744 375.072,160.367 379.111,95.702 325.376 C 78.206 310.838,63.754 292.513,53.572 271.955 C 51.479 267.730,50.744 266.107,48.797 261.417 C 33.457 224.455,32.799 181.020,47.002 143.000 C 48.979 137.708,50.908 133.260,53.493 128.033 C 82.130 70.126,142.285 34.153,206.000 36.832 M238.246 125.583 C 238.246 133.283,238.267 136.409,238.292 132.529 C 238.317 128.649,238.317 122.349,238.292 118.529 C 238.267 114.709,238.246 117.883,238.246 125.583 M200.138 175.792 C 208.785 175.816,222.885 175.816,231.472 175.792 C 240.058 175.768,232.983 175.748,215.750 175.748 C 198.517 175.748,191.491 175.768,200.138 175.792 M200.500 228.124 C 243.940 228.238,274.333 228.238,274.333 228.125 C 274.333 228.056,254.065 228.018,229.292 228.041 C 204.519 228.063,191.563 228.101,200.500 228.124 M238.207 272.625 L 238.167 281.666 206.958 281.708 L 175.750 281.751 206.964 281.792 C 231.811 281.825,238.193 281.791,238.257 281.625 C 238.301 281.510,238.316 277.404,238.292 272.500 L 238.247 263.583 238.207 272.625 " stroke="none" fill="#04849f" fill-rule="evenodd"></path><path id="path4" d="M196.627 36.785 C 196.834 36.824,197.134 36.823,197.294 36.781 C 197.453 36.739,197.283 36.707,196.917 36.709 C 196.550 36.711,196.420 36.745,196.627 36.785 M202.794 36.785 C 203.001 36.824,203.301 36.823,203.460 36.781 C 203.620 36.739,203.450 36.707,203.083 36.709 C 202.717 36.711,202.586 36.745,202.794 36.785 M247.292 139.625 C 252.265 139.649,260.402 139.649,265.375 139.625 C 270.348 139.600,266.279 139.580,256.333 139.580 C 246.387 139.580,242.319 139.600,247.292 139.625 M196.627 363.118 C 196.834 363.158,197.134 363.156,197.294 363.115 C 197.453 363.073,197.283 363.040,196.917 363.042 C 196.550 363.044,196.420 363.078,196.627 363.118 M202.794 363.118 C 203.001 363.158,203.301 363.156,203.460 363.115 C 203.620 363.073,203.450 363.040,203.083 363.042 C 202.717 363.044,202.586 363.078,202.794 363.118 " stroke="none" fill="#047c94" fill-rule="evenodd"></path></g></svg>